<svg width="81" height="81" viewBox="0 0 81 81" fill="none" xmlns="http://www.w3.org/2000/svg">
<g id="open-book--content-books-book-open">
<path id="Vector" d="M40.5001 77C32.2749 67.944 21.1202 62.0787 8.9978 60.4345C7.61799 60.2818 6.34364 59.6231 5.42071 58.5865C4.49778 57.5493 3.99169 56.2071 4.0001 54.8189V9.61475C4.00005 8.80366 4.17571 8.00217 4.51499 7.26543C4.85426 6.52872 5.34911 5.87424 5.96549 5.34702C6.571 4.8294 7.27972 4.44653 8.04459 4.22385C8.8094 4.00117 9.61291 3.94378 10.4016 4.05548C21.9934 5.97936 32.5977 11.7564 40.5001 20.4525V77Z" stroke="black" stroke-width="7" stroke-linecap="round" stroke-linejoin="round"/>
<path id="Vector_2" d="M40.4999 77C48.7251 67.944 59.8797 62.0787 72.0022 60.4345C73.3819 60.2818 74.6566 59.6231 75.5792 58.5865C76.5024 57.5493 77.0083 56.2071 76.9999 54.819V9.61475C76.9999 8.80366 76.8241 8.00217 76.485 7.26543C76.1458 6.52872 75.6511 5.87424 75.0345 5.34702C74.4292 4.8294 73.7205 4.44653 72.9557 4.22385C72.1903 4.00117 71.3873 3.94378 70.5984 4.05548C59.0065 5.97936 48.4023 11.7564 40.4999 20.4525V77Z" stroke="black" stroke-width="7" stroke-linecap="round" stroke-linejoin="round"/>
</g>
</svg>
