<svg width="15" height="13" viewBox="0 0 15 13" fill="none" xmlns="http://www.w3.org/2000/svg">
<g id="like-1--reward-social-up-rating-media-like-thumb-hand">
<path id="Vector" d="M13.3039 7.45508H10.9526V1.19492H13.3039C13.4354 1.19492 13.5616 1.24712 13.6546 1.34022C13.7477 1.43322 13.7999 1.55942 13.7999 1.69092V6.95903C13.7999 7.09059 13.7477 7.21676 13.6546 7.30979C13.5616 7.40281 13.4354 7.45508 13.3039 7.45508Z" stroke="black" stroke-linecap="round" stroke-linejoin="round"/>
<path id="Vector_2" d="M10.9526 7.45545L8.4327 11.4834C8.33504 11.6426 8.19781 11.7738 8.03438 11.8642C7.87095 11.9546 7.68688 12.0011 7.50012 11.9993C7.35303 12.0046 7.20637 11.9804 7.06881 11.928C6.93124 11.8757 6.80557 11.7963 6.6992 11.6946C6.59284 11.5928 6.50795 11.4708 6.44956 11.3357C6.39116 11.2006 6.36044 11.0552 6.35921 10.908V8.02095H2.00386C1.84296 8.01573 1.68496 7.97651 1.54026 7.90585C1.39556 7.8352 1.26746 7.73473 1.16436 7.61103C1.06126 7.48733 0.985561 7.34322 0.942161 7.18816C0.898761 7.0331 0.888661 6.87061 0.912561 6.71138L1.70626 1.59212C1.74006 1.31852 1.87276 1.06672 2.07916 0.884015C2.28556 0.701314 2.55166 0.600315 2.82736 0.600015H9.33551C9.64532 0.598815 9.95112 0.670115 10.2284 0.808415L10.9427 1.16552" stroke="black" stroke-linecap="round" stroke-linejoin="round"/>
<path id="Vector_3" d="M10.9526 7.45508V1.19488" stroke="black" stroke-linecap="round" stroke-linejoin="round"/>
</g>
</svg>
