<svg width="15" height="13" viewBox="0 0 15 13" fill="none" xmlns="http://www.w3.org/2000/svg">
<g id="like-1--reward-social-up-rating-media-like-thumb-hand">
<path id="Vector" d="M1.49605 5.14502H3.84733V11.4052H1.49605C1.36449 11.4052 1.23832 11.353 1.14529 11.2599C1.05226 11.1669 1 11.0407 1 10.9092V5.64107C1 5.50951 1.05226 5.38334 1.14529 5.29031C1.23832 5.19729 1.36449 5.14502 1.49605 5.14502Z" stroke="black" stroke-linecap="round" stroke-linejoin="round"/>
<path id="Vector_2" d="M3.84729 5.14463L6.36722 1.1167C6.46488 0.957505 6.60211 0.826305 6.76554 0.735895C6.92897 0.645485 7.11304 0.598955 7.2998 0.600815C7.44689 0.595505 7.59355 0.619735 7.73111 0.672075C7.86868 0.724415 7.99435 0.803795 8.10072 0.905535C8.20708 1.00727 8.29197 1.12929 8.35036 1.2644C8.40876 1.3995 8.43948 1.54494 8.44071 1.69212V4.57913H12.7961C12.957 4.58435 13.115 4.62357 13.2597 4.69423C13.4044 4.76488 13.5325 4.86535 13.6356 4.98905C13.7387 5.11275 13.8143 5.25686 13.8577 5.41192C13.9011 5.56698 13.9113 5.72947 13.8874 5.8887L13.0936 11.008C13.0598 11.2816 12.9271 11.5334 12.7207 11.7161C12.5143 11.8988 12.2483 11.9998 11.9726 12.0001H5.46441C5.1546 12.0013 4.84881 11.93 4.57152 11.7917L3.85721 11.4346" stroke="black" stroke-linecap="round" stroke-linejoin="round"/>
<path id="Vector_3" d="M3.84729 5.14453V11.4047" stroke="black" stroke-linecap="round" stroke-linejoin="round"/>
</g>
</svg>
