<svg width="23" height="20" viewBox="0 0 23 20" fill="none" xmlns="http://www.w3.org/2000/svg">
<g id="lock">
<path id="Vector" d="M17.6099 9.1665H5.19853C4.2193 9.1665 3.42548 9.9127 3.42548 10.8332V16.6665C3.42548 17.587 4.2193 18.3332 5.19853 18.3332H17.6099C18.5891 18.3332 19.3829 17.587 19.3829 16.6665V10.8332C19.3829 9.9127 18.5891 9.1665 17.6099 9.1665Z" stroke="black" stroke-opacity="0.7" stroke-linecap="round" stroke-linejoin="round"/>
<path id="Vector_2" d="M6.97162 9.1665V5.83317C6.97162 4.7281 7.43863 3.66829 8.2699 2.88689C9.10118 2.10549 10.2286 1.6665 11.4042 1.6665C12.5798 1.6665 13.7073 2.10549 14.5386 2.88689C15.3699 3.66829 15.8369 4.7281 15.8369 5.83317V9.1665" stroke="black" stroke-opacity="0.7" stroke-linecap="round" stroke-linejoin="round"/>
</g>
</svg>
