<svg width="42" height="42" viewBox="0 0 42 42" fill="none" xmlns="http://www.w3.org/2000/svg">
<g id="open-book--content-books-book-open">
<path id="Vector" d="M21 40C16.7184 35.2859 10.9119 32.2327 4.60159 31.3769C3.88334 31.2973 3.21998 30.9545 2.73955 30.4149C2.25912 29.875 1.99567 29.1763 2.00005 28.4537V4.92275C2.00003 4.50054 2.09146 4.08332 2.26808 3.69981C2.44469 3.31632 2.70228 2.97563 3.02313 2.70119C3.33833 2.43174 3.70725 2.23244 4.1054 2.11653C4.50353 2.00061 4.92179 1.97073 5.33236 2.02888C11.3664 3.03035 16.8865 6.03756 21 10.5643V40Z" stroke="white" stroke-width="4" stroke-linecap="round" stroke-linejoin="round"/>
<path id="Vector_2" d="M21 40C25.2816 35.2859 31.0881 32.2327 37.3984 31.3769C38.1166 31.2973 38.7802 30.9545 39.2604 30.4149C39.741 29.875 40.0044 29.1763 40 28.4537V4.92275C40 4.50054 39.9085 4.08332 39.7319 3.69981C39.5554 3.31632 39.2979 2.97563 38.9769 2.70119C38.6618 2.43174 38.2929 2.23244 37.8948 2.11653C37.4964 2.00061 37.0784 1.97073 36.6677 2.02888C30.6336 3.03035 25.1136 6.03756 21 10.5643V40Z" stroke="white" stroke-width="4" stroke-linecap="round" stroke-linejoin="round"/>
</g>
</svg>
