<svg width="17" height="16" viewBox="0 0 17 16" fill="none" xmlns="http://www.w3.org/2000/svg">
<g id="icn search .icn-xs" clip-path="url(#clip0_210_89)">
<path id="vector" fill-rule="evenodd" clip-rule="evenodd" d="M11.9601 10.3185L16.2639 14.6223C16.4151 14.7737 16.5001 14.979 16.5 15.193C16.4999 15.407 16.4148 15.6122 16.2635 15.7635C16.1121 15.9147 15.9068 15.9997 15.6928 15.9996C15.4788 15.9995 15.2736 15.9144 15.1223 15.7631L10.8185 11.4593C9.53194 12.4558 7.91407 12.9247 6.29403 12.7707C4.67398 12.6167 3.17346 11.8513 2.09771 10.6302C1.02196 9.40911 0.45179 7.82408 0.503197 6.19754C0.554604 4.57101 1.22372 3.02514 2.37443 1.87443C3.52514 0.723722 5.07101 0.0546036 6.69754 0.00319691C8.32408 -0.0482098 9.90911 0.521957 11.1302 1.59771C12.3513 2.67346 13.1167 4.17398 13.2707 5.79403C13.4247 7.41407 12.9558 9.03194 11.9593 10.3185H11.9601ZM6.9003 11.1993C8.17328 11.1993 9.39412 10.6936 10.2943 9.79345C11.1944 8.89332 11.7001 7.67248 11.7001 6.3995C11.7001 5.12652 11.1944 3.90568 10.2943 3.00554C9.39412 2.10541 8.17328 1.59972 6.9003 1.59972C5.62732 1.59972 4.40648 2.10541 3.50634 3.00554C2.60621 3.90568 2.10052 5.12652 2.10052 6.3995C2.10052 7.67248 2.60621 8.89332 3.50634 9.79345C4.40648 10.6936 5.62732 11.1993 6.9003 11.1993Z" fill="#737373"/>
</g>
<defs>
<clipPath id="clip0_210_89">
<rect width="16" height="16" fill="white" transform="translate(0.5)"/>
</clipPath>
</defs>
</svg>
